<svg width="318" height="48" viewBox="0 0 318 48" fill="none" xmlns="http://www.w3.org/2000/svg">
<path d="M61.7422 38.1641C61.0156 38.1641 60.3828 37.9062 59.8672 37.3906C59.3516 36.875 59.0938 36.2656 59.0938 35.5391V9.92188C59.0938 9.19531 59.3516 8.5625 59.8438 8.04688C60.3594 7.53125 60.9688 7.27344 61.6953 7.27344H78.0547C79.5312 7.27344 80.6797 8.44531 80.6797 9.92188V35.5391C80.6797 36.2656 80.4219 36.875 79.9062 37.3906C79.3906 37.9062 78.7578 38.1641 78.0312 38.1641C76.6016 38.1641 75.4766 37.0156 75.4766 35.5391V12.6172H64.25V35.5391C64.25 37.0391 63.1719 38.1641 61.7422 38.1641ZM103.789 23.8672V29.7266C103.789 32.1641 102.898 34.25 101.094 35.9844C99.2891 37.7188 97.1094 38.5859 94.5547 38.5859C92.7031 38.5859 91.2734 37.9531 90.2188 36.6875V43.9531C90.2188 45.3359 89.1641 46.3672 87.7812 46.3672C86.3984 46.3672 85.3672 45.3359 85.3672 43.9531V23.8672C85.3672 21.4531 86.2578 19.3672 88.0391 17.6562C89.8203 15.9219 92 15.0547 94.5547 15.0547C97.1094 15.0547 99.2891 15.9219 101.094 17.6562C102.898 19.3672 103.789 21.4531 103.789 23.8672ZM98.9375 29.5859V24.0312C98.9375 22.8359 98.5156 21.8047 97.6719 20.9844C96.8281 20.1641 95.7969 19.7422 94.5547 19.7422C93.3359 19.7422 92.3047 20.1641 91.4609 20.9844C90.6406 21.8047 90.2188 22.8359 90.2188 24.0312V29.5859C90.2188 30.7812 90.6406 31.8125 91.4609 32.6328C92.3047 33.4531 93.3359 33.875 94.5547 33.875C95.7969 33.875 96.8281 33.4531 97.6719 32.6328C98.5156 31.8125 98.9375 30.7812 98.9375 29.5859ZM106.93 29.6328V24.0312C106.93 21.5703 107.82 19.4609 109.602 17.7031C111.383 15.9453 113.562 15.0547 116.117 15.0547C118.672 15.0547 120.852 15.9219 122.656 17.6797C124.461 19.4375 125.352 21.5469 125.352 24.0312V29.6328C125.352 32.0938 124.461 34.2031 122.656 35.9609C120.852 37.7188 118.672 38.5859 116.117 38.5859C113.562 38.5859 111.406 37.7188 109.602 35.9609C107.82 34.2031 106.93 32.0938 106.93 29.6328ZM111.781 24.1719V29.4922C111.781 30.7344 112.203 31.7656 113.023 32.6094C113.867 33.4531 114.898 33.875 116.117 33.875C117.359 33.875 118.391 33.4531 119.211 32.6094C120.055 31.7656 120.477 30.7344 120.477 29.4922V24.1719C120.477 22.9297 120.055 21.875 119.211 21.0312C118.391 20.1641 117.359 19.7422 116.117 19.7422C114.898 19.7422 113.867 20.1641 113.023 21.0312C112.203 21.8984 111.781 22.9297 111.781 24.1719ZM128.492 29.8203V23.8203C128.492 21.4297 129.383 19.3672 131.141 17.6562C132.898 15.9219 135.148 15.0547 137.844 15.0547C139.648 15.0547 141.195 15.4766 142.484 16.3203C143.797 17.1406 144.828 18.1016 145.555 19.1562C146 19.7188 146.234 20.3047 146.258 20.9375C146.258 22.1797 145.297 23.0938 143.914 23.0938C143.07 23.0938 142.578 22.7891 141.852 22.0156C140.75 20.4922 139.32 19.7422 137.609 19.7422C136.438 19.7422 135.43 20.1641 134.586 20.9844C133.766 21.8047 133.344 22.7891 133.344 23.9375V29.6562C133.344 30.7812 133.766 31.7656 134.586 32.6094C135.43 33.4531 136.438 33.875 137.609 33.875C139.367 33.875 140.773 33.125 141.828 31.625C142.578 30.8516 143.07 30.5234 143.914 30.5234C145.344 30.5234 146.281 31.4141 146.258 32.7031C146.188 33.4297 145.906 34.1094 145.391 34.7891C144.617 35.7969 143.586 36.6875 142.273 37.4375C140.984 38.1875 139.438 38.5625 137.656 38.5625C135.031 38.5625 132.852 37.6953 131.094 35.9844C129.359 34.25 128.492 32.1875 128.492 29.8203ZM150.547 15.6172H163.695C165.172 15.6172 166.109 16.5312 166.109 18.0312C166.109 19.5078 165.195 20.3281 163.695 20.3281H159.547V35.75C159.547 37.0859 158.445 38.1406 157.062 38.1406C155.773 38.1406 154.742 37.1328 154.742 35.8203V20.3281H150.547C149.07 20.3281 148.156 19.4609 148.156 17.9844C148.156 16.5547 149.07 15.6172 150.547 15.6172ZM168.758 29.6328V24.0312C168.758 21.5703 169.648 19.4609 171.43 17.7031C173.211 15.9453 175.391 15.0547 177.945 15.0547C180.5 15.0547 182.68 15.9219 184.484 17.6797C186.289 19.4375 187.18 21.5469 187.18 24.0312V29.6328C187.18 32.0938 186.289 34.2031 184.484 35.9609C182.68 37.7188 180.5 38.5859 177.945 38.5859C175.391 38.5859 173.234 37.7188 171.43 35.9609C169.648 34.2031 168.758 32.0938 168.758 29.6328ZM173.609 24.1719V29.4922C173.609 30.7344 174.031 31.7656 174.852 32.6094C175.695 33.4531 176.727 33.875 177.945 33.875C179.188 33.875 180.219 33.4531 181.039 32.6094C181.883 31.7656 182.305 30.7344 182.305 29.4922V24.1719C182.305 22.9297 181.883 21.875 181.039 21.0312C180.219 20.1641 179.188 19.7422 177.945 19.7422C176.727 19.7422 175.695 20.1641 174.852 21.0312C174.031 21.8984 173.609 22.9297 173.609 24.1719ZM203.516 21.9219L212.234 34.1797C212.539 34.7422 212.656 35.3281 212.586 35.9141C212.539 36.5 212.281 37.0156 211.789 37.4844C211.32 37.9297 210.734 38.1641 210.055 38.1641C209.328 38.1875 208.484 37.6953 207.922 36.8281L199.156 24.7344H197.023V35.4922C197.023 36.9688 195.969 38.1641 194.492 38.1641C193.766 38.1641 193.156 37.9062 192.617 37.4141C192.102 36.8984 191.844 36.2656 191.844 35.5391V9.75781C191.844 9.03125 192.102 8.39844 192.617 7.88281C193.156 7.36719 193.766 7.10938 194.492 7.10938C195.922 7.10938 197.023 8.25781 197.023 9.6875V19.5312H199.203L207.266 8.25781C207.758 7.50781 208.461 7.13281 209.352 7.13281C210.055 7.13281 210.641 7.39062 211.109 7.88281C212.047 8.84375 212.023 10.1328 211.461 11.1406L203.516 21.9219ZM229.93 15.4766C230.82 15.5 231.523 15.875 232.016 16.625C232.508 17.375 232.578 18.2188 232.203 19.1562L225.125 36.6875L222.219 44.3281C221.773 45.4766 221 46.0625 219.875 46.0391C219.055 46.0156 218.398 45.6875 217.906 45.0078C217.414 44.3516 217.344 43.5312 217.695 42.5703L220.18 36.1016L213.336 19.1328C212.984 18.2188 213.055 17.375 213.547 16.625C214.062 15.8516 214.742 15.4766 215.562 15.4766C216.617 15.4531 217.414 16.0156 217.719 17.0234L222.781 30.9922L227.82 17.0234C228.172 15.9688 228.875 15.4531 229.93 15.4766ZM237.406 15.6172H250.109C250.836 15.6172 251.469 15.875 251.961 16.4141C252.477 16.9297 252.734 17.5625 252.734 18.3125V35.5391C252.734 37.0156 251.703 38.1641 250.414 38.1641C249.734 38.1641 249.125 37.9062 248.633 37.3906C248.141 36.875 247.883 36.2656 247.883 35.5391V20.3281H239.633V35.5391C239.633 36.2656 239.375 36.875 238.883 37.3906C238.391 37.9062 237.805 38.1641 237.125 38.1641C235.883 38.1641 234.805 36.9688 234.805 35.5391V18.3125C234.805 17.5625 235.062 16.9297 235.578 16.4141C236.094 15.875 236.703 15.6172 237.406 15.6172ZM273.172 15.4531C273.828 15.4531 274.391 15.7109 274.836 16.2266C275.281 16.7422 275.516 17.3281 275.516 17.9844V35.7031C275.516 37.0859 274.438 38.1641 273.102 38.1641C271.766 38.1641 270.688 37.0859 270.688 35.7031V24.5L261.383 37.2266C260.914 37.8594 260.211 38.1641 259.25 38.1641C258.055 38.1641 257.164 37.2969 257.164 35.9844V17.8672C257.164 16.5312 258.195 15.4531 259.508 15.4531C260.891 15.4531 261.969 16.5312 261.969 17.8672V28.8359L271.086 16.3672C271.555 15.7578 272.258 15.4531 273.172 15.4531ZM281.141 15.6172H294.289C295.766 15.6172 296.703 16.5312 296.703 18.0312C296.703 19.5078 295.789 20.3281 294.289 20.3281H290.141V35.75C290.141 37.0859 289.039 38.1406 287.656 38.1406C286.367 38.1406 285.336 37.1328 285.336 35.8203V20.3281H281.141C279.664 20.3281 278.75 19.4609 278.75 17.9844C278.75 16.5547 279.664 15.6172 281.141 15.6172ZM305.281 24.4062H309.453C311.398 24.4062 312.992 25.0625 314.258 26.375C315.547 27.6875 316.18 29.3281 316.18 31.2969C316.18 33.2188 315.547 34.8125 314.258 36.1016C312.992 37.3672 311.398 38 309.453 38H302.844H302.82C301.484 38 300.43 36.9453 300.43 35.6328V17.8672C300.43 16.5312 301.508 15.4766 302.844 15.4766C304.227 15.4766 305.281 16.5312 305.281 17.8672V24.4062ZM305.281 33.4766H308.914C310.438 33.4766 311.492 32.4922 311.492 31.1797C311.492 29.7969 310.461 28.7422 308.938 28.7422H305.281V33.4766Z" fill="#fff"/>
<path fill-rule="evenodd" clip-rule="evenodd" d="M24 5.5C13.7827 5.5 5.5 13.7827 5.5 24C5.5 34.2173 13.7827 42.5 24 42.5C34.2173 42.5 42.5 34.2173 42.5 24C42.5 13.7827 34.2173 5.5 24 5.5ZM2.5 24C2.5 12.1259 12.1259 2.5 24 2.5C35.8741 2.5 45.5 12.1259 45.5 24C45.5 35.8741 35.8741 45.5 24 45.5C12.1259 45.5 2.5 35.8741 2.5 24Z" fill="#fff" stroke="#fff"/>
<path fill-rule="evenodd" clip-rule="evenodd" d="M24 10.5C24.8284 10.5 25.5 11.1716 25.5 12V36C25.5 36.8284 24.8284 37.5 24 37.5C23.1716 37.5 22.5 36.8284 22.5 36V12C22.5 11.1716 23.1716 10.5 24 10.5Z" fill="#fff" stroke="#fff" stroke-linecap="round"/>
<path fill-rule="evenodd" clip-rule="evenodd" d="M16.5 19C16.5 15.1657 20.1254 12.5 24 12.5C27.8746 12.5 31.5 15.1657 31.5 19C31.5 19.8284 30.8284 20.5 30 20.5C29.1716 20.5 28.5 19.8284 28.5 19C28.5 17.3115 26.753 15.5 24 15.5C21.247 15.5 19.5 17.3115 19.5 19C19.5 20.6885 21.247 22.5 24 22.5C27.8746 22.5 31.5 25.1657 31.5 29C31.5 32.8343 27.8746 35.5 24 35.5C20.1254 35.5 16.5 32.8343 16.5 29C16.5 28.1716 17.1716 27.5 18 27.5C18.8284 27.5 19.5 28.1716 19.5 29C19.5 30.6885 21.247 32.5 24 32.5C26.753 32.5 28.5 30.6885 28.5 29C28.5 27.3115 26.753 25.5 24 25.5C20.1254 25.5 16.5 22.8343 16.5 19Z" fill="#fff" stroke="#fff" stroke-linecap="round"/>
</svg>
