<svg width="56" height="55" viewBox="0 0 56 55" fill="none" xmlns="http://www.w3.org/2000/svg">
<path d="M39.6667 50.4168H16.3333C13.756 50.4168 11.6667 48.3648 11.6667 45.8335V16.0418H7V11.4585H16.3333V9.16683C16.3333 6.63552 18.4227 4.5835 21 4.5835H35C37.5773 4.5835 39.6667 6.63552 39.6667 9.16683V11.4585H49V16.0418H44.3333V45.8335C44.3333 48.3648 42.244 50.4168 39.6667 50.4168ZM16.3333 16.0418V45.8335H39.6667V16.0418H16.3333ZM21 9.16683V11.4585H35V9.16683H21ZM35 41.2502H30.3333V20.6252H35V41.2502ZM25.6667 41.2502H21V20.6252H25.6667V41.2502Z" fill="#530A0A"/>
</svg>
