<svg width="48" height="48" viewBox="0 0 48 48" fill="none" xmlns="http://www.w3.org/2000/svg">
<path fill-rule="evenodd" clip-rule="evenodd" d="M24 5.5C13.7827 5.5 5.5 13.7827 5.5 24C5.5 34.2173 13.7827 42.5 24 42.5C34.2173 42.5 42.5 34.2173 42.5 24C42.5 13.7827 34.2173 5.5 24 5.5ZM2.5 24C2.5 12.1259 12.1259 2.5 24 2.5C35.8741 2.5 45.5 12.1259 45.5 24C45.5 35.8741 35.8741 45.5 24 45.5C12.1259 45.5 2.5 35.8741 2.5 24Z" fill="#D4BA14" stroke="#D4BA14"/>
<path fill-rule="evenodd" clip-rule="evenodd" d="M24 10.5C24.8284 10.5 25.5 11.1716 25.5 12V36C25.5 36.8284 24.8284 37.5 24 37.5C23.1716 37.5 22.5 36.8284 22.5 36V12C22.5 11.1716 23.1716 10.5 24 10.5Z" fill="#D4BA14" stroke="#D4BA14" stroke-linecap="round"/>
<path fill-rule="evenodd" clip-rule="evenodd" d="M16.5 19C16.5 15.1657 20.1254 12.5 24 12.5C27.8746 12.5 31.5 15.1657 31.5 19C31.5 19.8284 30.8284 20.5 30 20.5C29.1716 20.5 28.5 19.8284 28.5 19C28.5 17.3115 26.753 15.5 24 15.5C21.247 15.5 19.5 17.3115 19.5 19C19.5 20.6885 21.247 22.5 24 22.5C27.8746 22.5 31.5 25.1657 31.5 29C31.5 32.8343 27.8746 35.5 24 35.5C20.1254 35.5 16.5 32.8343 16.5 29C16.5 28.1716 17.1716 27.5 18 27.5C18.8284 27.5 19.5 28.1716 19.5 29C19.5 30.6885 21.247 32.5 24 32.5C26.753 32.5 28.5 30.6885 28.5 29C28.5 27.3115 26.753 25.5 24 25.5C20.1254 25.5 16.5 22.8343 16.5 19Z" fill="#D4BA14" stroke="#D4BA14" stroke-linecap="round"/>
</svg>
